<?xml version="1.0" standalone="no"?>
<!DOCTYPE svg PUBLIC "-//W3C//DTD SVG 20010904//EN"
 "http://www.w3.org/TR/2001/REC-SVG-20010904/DTD/svg10.dtd">
<svg version="1.0" xmlns="http://www.w3.org/2000/svg"
 width="512.000000pt" height="512.000000pt" viewBox="0 0 512.000000 512.000000"
 preserveAspectRatio="xMidYMid meet">

<g transform="translate(0.000000,512.000000) scale(0.100000,-0.100000)"
fill="#000000" stroke="none">
<path d="M2080 4403 c-65 -19 -78 -19 -149 -4 -204 43 -572 -34 -702 -146 -46
-41 -253 -140 -309 -148 -112 -18 -232 -90 -362 -218 -145 -143 -236 -291
-225 -368 4 -34 -4 -58 -54 -163 -49 -103 -64 -126 -89 -136 -69 -29 -134
-135 -162 -263 -14 -67 -6 -214 14 -252 15 -27 15 -32 -2 -66 -29 -56 -44
-162 -37 -264 14 -202 79 -342 194 -415 35 -22 51 -45 102 -146 34 -65 92
-161 129 -213 55 -76 67 -100 64 -123 -6 -43 15 -107 54 -160 36 -50 122 -108
162 -108 12 0 22 -4 22 -8 0 -22 75 -92 132 -123 56 -30 72 -34 143 -35 67 -1
91 -7 149 -34 157 -73 360 -123 562 -140 92 -7 121 -13 138 -28 84 -77 244
-88 319 -23 28 24 41 28 98 28 92 1 160 25 203 74 20 21 36 46 36 54 0 11 151
97 250 143 4 1 17 -21 30 -49 66 -141 251 -217 460 -190 156 20 272 72 510
231 125 83 186 116 270 144 277 93 596 28 784 -160 89 -88 155 -223 156 -319
1 -78 104 -108 140 -40 27 50 -15 222 -81 330 -108 178 -307 312 -534 360
-103 22 -304 23 -400 1 -155 -34 -248 -78 -476 -227 -173 -112 -246 -146 -351
-165 -97 -17 -181 -11 -250 18 -60 26 -88 57 -104 115 l-12 48 41 34 c80 65
262 257 316 332 49 70 58 77 108 93 175 55 331 378 268 555 -12 36 -13 45 -1
64 27 42 47 133 53 237 10 182 -27 344 -98 424 -31 35 -46 65 -65 132 -47 160
-150 389 -194 429 -44 40 -120 7 -120 -51 0 -12 24 -71 54 -131 47 -93 132
-311 124 -318 -2 -2 -54 -6 -115 -10 -91 -6 -114 -5 -117 6 -104 307 -255 587
-430 799 l-65 78 35 21 c20 12 41 18 47 14 42 -24 145 -111 225 -187 74 -72
98 -89 122 -89 43 0 70 28 70 73 0 33 -9 45 -97 131 -54 53 -125 116 -158 141
-52 39 -62 52 -73 94 -41 155 -390 336 -640 333 -32 0 -82 -7 -112 -16z m256
-153 c43 -11 120 -40 169 -64 94 -46 180 -113 158 -122 -7 -3 -68 -40 -136
-83 -482 -302 -890 -712 -1184 -1190 -4 -6 -155 92 -159 104 -3 6 19 68 47
136 90 212 208 430 340 625 54 81 62 121 29 154 -20 20 -54 26 -85 14 -56 -22
-349 -541 -445 -789 -13 -33 -25 -62 -27 -64 -2 -3 -39 12 -82 34 l-79 38 15
61 c54 236 154 509 278 761 120 244 139 273 203 308 81 44 228 77 372 84 l125
6 -60 -64 c-163 -175 -179 -207 -133 -256 40 -43 74 -32 147 50 155 171 236
248 276 262 56 20 139 18 231 -5z m-1314 -306 c14 -4 12 -15 -19 -82 -19 -42
-57 -131 -84 -197 -48 -119 -49 -120 -81 -119 -46 1 -332 27 -337 30 -8 6 82
122 145 186 89 91 161 145 231 174 55 23 87 25 145 8z m1580 -220 c142 -172
284 -418 362 -626 20 -53 36 -101 36 -106 0 -5 -48 -17 -107 -26 -60 -9 -119
-19 -134 -22 -22 -5 -30 2 -70 63 -104 156 -295 373 -439 498 l-55 47 45 40
c63 56 272 208 287 208 7 0 41 -34 75 -76z m-348 -436 c137 -138 316 -350 316
-376 0 -4 -64 -26 -142 -49 l-142 -41 -66 60 c-83 77 -224 187 -320 250 -41
27 -77 51 -79 53 -5 6 250 265 261 265 5 0 82 -73 172 -162z m-1502 113 c32
-4 60 -10 63 -12 2 -3 -3 -27 -11 -54 -8 -28 -26 -90 -38 -140 l-24 -90 -35 3
c-46 4 -77 -25 -77 -71 0 -43 18 -59 106 -96 194 -81 333 -155 499 -266 102
-68 275 -203 275 -214 0 -4 -13 -14 -28 -23 -16 -9 -83 -55 -150 -102 -67 -47
-124 -86 -126 -86 -2 0 -60 38 -130 84 -132 88 -384 221 -521 277 -44 17 -143
53 -220 78 -113 38 -142 51 -153 71 -21 39 -11 183 17 247 35 79 44 84 116 67
83 -19 121 -18 145 6 42 42 14 114 -50 127 -17 3 -30 7 -30 8 0 8 48 108 73
154 l30 54 106 -7 c58 -4 132 -10 163 -15z m1188 -483 c139 -106 185 -147 174
-157 -5 -5 -46 -22 -90 -40 -45 -18 -147 -65 -227 -105 l-145 -73 -88 73 c-49
40 -90 78 -92 83 -4 13 107 185 189 293 l60 77 52 -32 c28 -17 104 -71 167
-119z m1560 -100 c28 -65 44 -187 37 -291 -5 -83 -29 -177 -46 -177 -3 0 -51
7 -106 15 -152 23 -427 30 -600 16 -239 -19 -531 -75 -567 -108 -24 -22 -23
-78 2 -103 26 -26 52 -25 185 5 61 13 166 32 235 42 250 34 822 15 852 -30 5
-6 7 -40 5 -74 -7 -103 -81 -239 -153 -284 -34 -21 -36 -21 -127 -5 -50 9
-167 21 -259 28 -656 47 -1377 -183 -1873 -597 -70 -58 -83 -66 -110 -61 -36
8 -105 52 -105 68 0 19 260 270 368 356 202 160 438 301 666 398 133 57 164
97 117 155 -28 35 -72 29 -206 -30 -343 -150 -640 -354 -919 -632 -82 -82
-157 -149 -166 -149 -22 0 -76 52 -85 80 -15 49 370 460 608 648 614 487 1356
756 2130 770 l98 2 19 -42z m-3190 -278 c162 -54 332 -128 475 -207 116 -64
280 -166 289 -181 2 -4 -53 -62 -124 -129 l-127 -122 -84 35 c-101 43 -287
105 -387 129 -39 9 -83 26 -97 37 -56 44 -104 189 -105 315 0 71 17 163 31
163 5 0 63 -18 129 -40z m359 -737 l44 -19 -63 -72 c-34 -40 -63 -72 -65 -72
-6 0 -112 164 -134 207 l-21 42 97 -34 c54 -18 118 -42 142 -52z m2338 -104
c71 -6 130 -13 132 -15 7 -7 -48 -80 -119 -157 -87 -94 -198 -187 -310 -259
-83 -54 -209 -122 -215 -116 -1 2 -17 50 -34 106 l-32 104 39 81 c22 45 52
121 67 169 l27 87 47 4 c104 8 278 6 398 -4z m-612 -41 c-4 -13 -15 -41 -25
-63 l-18 -40 -22 49 c-24 52 -20 62 25 69 17 2 34 5 38 6 5 0 5 -9 2 -21z
m-216 -85 c79 -159 204 -534 183 -555 -15 -15 -83 -27 -115 -21 -24 5 -34 17
-62 79 -42 92 -141 263 -217 378 -37 54 -56 92 -51 97 7 7 183 67 230 78 2 1
16 -25 32 -56z m-327 -218 c94 -140 238 -408 225 -421 -11 -11 -61 -9 -95 5
-20 8 -61 53 -117 127 -48 64 -134 164 -192 224 l-104 109 88 45 c48 25 93 44
98 43 6 -2 49 -61 97 -132z m-310 -144 c58 -60 120 -128 138 -151 l34 -42 -55
7 c-138 18 -357 77 -433 117 l-28 15 68 50 c98 71 158 112 165 113 4 0 54 -49
111 -109z"/>
</g>
</svg>
